<svg xmlns="http://www.w3.org/2000/svg" viewBox="0 0 512 512" width="512" height="512"><path d="M461.65 83.55c-37.2 0-67.4-30.2-67.4-67.4 0-7.8-6.3-14.1-14.1-14.1h-248.2c-7.8 0-14.1 6.3-14.1 14.1 0 37.1-30.2 67.4-67.4 67.4-3.97 0-7.553 1.633-10.113 4.265-2.47 2.538-3.988 6.006-3.988 9.835v99.4c0 137.5 86.3 262.9 214.6 312 3.4 1.2 6.7 1.2 10.1 0 128.4-49.2 214.6-174.6 214.6-312v-99.4c.1-7.8-6.2-14.1-14-14.1zm-80.8 303.6c-32.3 40.7-75 73.5-124.8 93.6-49.8-20.1-92.4-52.9-124.7-93.6l-20.6-29.4c-21.7-34.8-36.4-74-42.7-115.2l-2.9-28.2-.5-17.2v-11l-.1-28.2v-47.2c41.4-6.2 74.3-39 80.4-80.4h222c6.2 41.4 39 74.3 80.4 80.4v86.3h.2c0 57.8-16.7 113.2-46 160.6"/><g transform="translate(-79.112 216.546)"><ellipse transform="matrix(.86692 -.49844 .51782 .8555 0 0)" cx="438.856" cy="199.663" rx="36.013" ry="35.568"/><path d="M355.035 17.448l-36.58-34.044c-4.577-4.26-11.005-6.183-17.244-5.162-6.237 1.02-11.67 4.882-14.57 10.363L251.838 54.4h-68.983c-11.125 0-20.142 8.787-20.142 19.633 0 10.84 9.017 19.63 20.144 19.63H353.69c1.574 0 3.097-.194 4.566-.527 1.517-.127 3.065-.45 4.602-.996 10.456-3.698 20.876-7.482 31.122-11.544-.01.212-.032.42-.032.634 0 6.935 5.77 12.565 12.893 12.565l72.24-.003c3.73 0 7.3-1.59 9.744-4.336 2.443-2.748 3.545-6.42 3.016-10.015l-9.064-61.473c-.18-6.047-2.262-12.35-5.026-14.91-14.555-13.714-29.107-27.43-43.668-41.144-2.42-2.25-6.88-3.574-11.297-3.8-4.998-.9-14.172-2.854-22.338-6.053-5.373-2.054-10.213-4.71-12.912-7.117-1.368-1.192-2.182-2.257-2.594-3.027-.41-.793-.518-1.242-.533-1.975-.003-1.062.39-3.43 3.39-7.545 2.957-4.065 8.43-9.508 17.107-15.83 2.425-1.772 4.02-4.222 4.728-6.878 3.922.752 8.016 1.063 12.837 1.87 6.045 1.01 21.664 8.04 21.664 8.04l1.383.65s1.38.66 1.714.825c0 0 2.1 1.07 2.695-.07l2.417-4.632c.595-1.137-1.53-2.163-1.53-2.163-.326-.166-1.686-.865-1.686-.865l-1.357-.707s-15.025-8.166-19.42-12.338c-6.118-5.796-9.66-10.78-16.548-14.195-6.885-3.416-32.243-15.99-32.243-15.99-1.28-.635-2.828-.166-3.463 1.047l-8.554 16.382c-.634 1.214-.11 2.71 1.17 3.343l16.957 8.41c-8.177 6.336-14.342 12.363-18.854 18.49-5.137 6.983-8.19 14.48-8.194 22.153-.02 5.29 1.534 10.352 3.96 14.495 4.306 7.303 10.626 12.027 17.033 15.692 7.627 4.278 15.79 7.12 23.02 9.144-9.605 17.26-21.436 29.6-47.6 38.178zm-44.928 12.475l21.75 20.238c.498 1.413.993 2.827 1.49 4.24h-36.186l12.947-24.477zm111.24 38.74c13.863-6.69 27.135-14.29 39.41-23.383l3.447 23.382h-42.858z"/></g></svg>